<svg xmlns="http://www.w3.org/2000/svg" width="850" height="670" viewBox="0 0 850 670">
  <g id="Group_1" data-name="Group 1" transform="translate(403 -17)">
    <g id="Rectangle_4" data-name="Rectangle 4" transform="translate(-278 17)" fill="none" stroke="#44426a" stroke-width="5" stroke-dasharray="20">
      <rect width="500" height="70" rx="35" stroke="none"/>
      <rect x="2.5" y="2.5" width="495" height="65" rx="32.5" fill="none"/>
    </g>
    <g id="Rectangle_10" data-name="Rectangle 10" transform="translate(-343 317)" fill="none" stroke="#44426a" stroke-width="5" stroke-dasharray="20">
      <rect width="500" height="70" rx="35" stroke="none"/>
      <rect x="2.5" y="2.5" width="495" height="65" rx="32.5" fill="none"/>
    </g>
    <g id="Rectangle_11" data-name="Rectangle 11" transform="translate(-53 417)" fill="none" stroke="#44426a" stroke-width="5" stroke-dasharray="20">
      <rect width="500" height="70" rx="35" stroke="none"/>
      <rect x="2.5" y="2.5" width="495" height="65" rx="32.5" fill="none"/>
    </g>
    <g id="Rectangle_12" data-name="Rectangle 12" transform="translate(-278 517)" fill="none" stroke="#44426a" stroke-width="5" stroke-dasharray="20">
      <rect width="500" height="70" rx="35" stroke="none"/>
      <rect x="2.5" y="2.5" width="495" height="65" rx="32.5" fill="none"/>
    </g>
    <g id="Rectangle_13" data-name="Rectangle 13" transform="translate(-403 617)" fill="none" stroke="#44426a" stroke-width="5" stroke-dasharray="20">
      <rect width="500" height="70" rx="35" stroke="none"/>
      <rect x="2.5" y="2.5" width="495" height="65" rx="32.5" fill="none"/>
    </g>
    <g id="Rectangle_5" data-name="Rectangle 5" transform="translate(-208 117)" fill="none" stroke="#44426a" stroke-width="5" stroke-dasharray="20">
      <rect width="500" height="60" rx="30" stroke="none"/>
      <rect x="2.5" y="2.5" width="495" height="55" rx="27.5" fill="none"/>
    </g>
    <g id="Rectangle_6" data-name="Rectangle 6" transform="translate(-128 217)" fill="none" stroke="#44426a" stroke-width="5" stroke-dasharray="20">
      <rect width="500" height="60" rx="30" stroke="none"/>
      <rect x="2.5" y="2.5" width="495" height="55" rx="27.5" fill="none"/>
    </g>
  </g>
</svg>
