<svg height="512" viewBox="0 0 60 60" width="512" xmlns="http://www.w3.org/2000/svg"><g id="011---Narutomaki"><path id="Shape" d="m5.092 34.792c.7098518.1477532 1.27450343.6852767 1.457 1.387l.052.194c.19178148.6980762-.02824805 1.4445496-.568 1.927-2.433 2.166-3.186 4.67-2.014 6.7 1.159 2.007 3.672 2.618 6.726 1.63.7104248-.2446047 1.4980058-.0704021 2.039.451l.135.135c.5228822.5401992.697282 1.3286717.451 2.039-.987 3.053-.377 5.567 1.63 6.726 2.031 1.172 4.534.418 6.7-2.014.4834789-.5414918 1.2325721-.7613343 1.932-.567l.191.051c.7026232.1816272 1.2411367.7465042 1.389 1.457.653 3.192 2.444 5.092 4.788 5.092s4.135-1.9 4.792-5.092c.1477532-.7098518.6852767-1.2745034 1.387-1.457l.194-.052c.699307-.1931882 1.4476703.0269415 1.931.568 2.162 2.432 4.666 3.185 6.7 2.014 2.007-1.159 2.617-3.673 1.63-6.726-.246282-.7103283-.0718822-1.4988008.451-2.039l.135-.135c.5409942-.5214021 1.3285752-.6956047 2.039-.451 3.053.987 5.568.378 6.726-1.63 1.172-2.03.419-4.534-2.014-6.7-.5417002-.4833472-.7615809-1.2325703-.567-1.932l.051-.191c.1816272-.7026232.7465042-1.2411367 1.457-1.389 3.188-.653 5.088-2.444 5.088-4.788s-1.9-4.135-5.092-4.792c-.7098518-.1477532-1.2745034-.6852767-1.457-1.387l-.052-.194c-.1934338-.699309.0267339-1.4478016.568-1.931 2.433-2.162 3.186-4.666 2.014-6.7-1.16-2.007-3.671-2.617-6.726-1.63-.7104248.2446047-1.4980058.0704021-2.039-.451l-.135-.135c-.5228822-.5401992-.697282-1.3286717-.451-2.039.987-3.053.377-5.567-1.63-6.726-2.029-1.171-4.534-.417-6.7 2.014-.4838729.54086817-1.2325776.76059673-1.932.567l-.191-.051c-.7026232-.18162723-1.2411367-.74650422-1.389-1.457-.653-3.188-2.444-5.088-4.788-5.088s-4.135 1.9-4.792 5.092c-.1477532.7098518-.6852767 1.27450343-1.387 1.457l-.194.052c-.6980669.19080588-1.4440283-.02907275-1.927-.568-2.166-2.433-4.669-3.186-6.7-2.014-2.007 1.159-2.617 3.673-1.63 6.726.246282.7103283.0718822 1.4988008-.451 2.039l-.135.135c-.5399705.5233075-1.3286998.6977641-2.039.451-3.053-.986-5.567-.377-6.726 1.63-1.172 2.03-.419 4.534 2.014 6.7.54018281.4826006.75992509 1.2298018.567 1.928l-.051.191c-.18162723.7026232-.74650422 1.2411367-1.457 1.389-3.192.657-5.092 2.448-5.092 4.792s1.9 4.135 5.092 4.792zm.4-7.625c1.46917517-.3428164 2.63044057-1.46639 3.02152967-2.9234583s-.05147864-3.0111239-1.15152967-4.0435417c-3.52-3.128-1.775-6.4 2.768-4.928 1.4591271.4690915 3.0580606.0825932 4.1418269-1.0011731s1.4702646-2.6826998 1.0011731-4.1418269c-1.473-4.556 1.811-6.279 4.927-2.767 1.0309943 1.10072051 2.5840779 1.54474428 4.0410956 1.15534182s2.5815083-1.54903457 2.9259044-3.01734182c.964-4.681 4.7-4.682 5.666 0 .3449972 1.46785672 1.4694663 2.62693723 2.926193 3.01626192 1.4567267.3893247 3.0095165-.05423178 4.040807-1.15426192 3.126-3.516 6.4-1.781 4.928 2.768-.4690915 1.4591271-.0825932 3.0580606 1.0011731 4.1418269s2.6826998 1.4702646 4.1418269 1.0011731c4.559-1.472 6.277 1.808 2.768 4.929-1.099593 1.0309804-1.5429984 2.5831997-1.1539016 4.0394377.3890967 1.4562381 1.5476214 2.5804327 3.0149016 2.9255623 4.681.964 4.682 4.7 0 5.666-1.4678567.3449972-2.6269372 1.4694663-3.0162619 2.926193s.0542318 3.0095165 1.1542619 4.040807c3.522 3.129 1.772 6.4-2.768 4.928-1.4590405-.4682974-3.0574504-.0815229-4.1409866 1.0020134-1.0835363 1.0835362-1.4703108 2.6819461-1.0020134 4.1409866 1.47 4.548-1.8 6.284-4.929 2.768-1.0309804-1.099593-2.5831997-1.5429984-4.0394377-1.1539016-1.4562381.3890967-2.5804327 1.5476214-2.9255623 3.0149016-.964 4.681-4.7 4.682-5.666 0-.3395469-1.471932-1.4642116-2.636014-2.9235786-3.0260443s-3.0148215.0577632-4.0434214 1.1640443c-3.123 3.518-6.4 1.782-4.928-2.768.4690915-1.4591271.0825932-3.0580606-1.0011731-4.1418269s-2.6826998-1.4702646-4.1418269-1.0011731c-4.536 1.473-6.291-1.795-2.767-4.927 1.10072051-1.0309943 1.54474428-2.5840779 1.15534182-4.0410956s-1.54903457-2.5815083-3.01734182-2.9259044c-4.685-.964-4.686-4.701 0-5.666z"/><path id="Shape" d="m45.542 41.5c.310122-.1891994.4932453-.5317018.4783498-.8946759-.0148955-.3629742-.2254666-.6893204-.5500482-.8524732-.3245817-.1631528-.7121139-.1374466-1.0123016.0671491-7.938 5.127-19.4 6.662-25.8-2.084-2.2648121-3.0856467-3.1310133-6.9800044-2.387671-10.7347389.7433424-3.7547346 3.0280168-7.0252986 6.297671-9.0152611 8.359-5.4 19.71 1.045 18.183 9.306-.450488 2.3621529-1.8638544 4.4302113-3.901 5.708-3.3384626 2.1528383-7.7697674 1.3876959-10.193-1.76-.8300448-1.132153-1.1464586-2.560858-.8720588-3.9376112.2743999-1.3767532 1.1143853-2.574977 2.3150588-3.3023888 3-1.939 7.075.344 6.546 3.209-.1560982.8072515-.6412528 1.5130627-1.339 1.948-.2993886.1952456-.4718727.535382-.4524793.8922829s.227718.6763447.5465.838.6995907.1409628.9989793-.0542829c1.162351-.7323852 1.9671275-1.9158161 2.221-3.266.86-4.654-5.192-8.1-9.6-5.252-1.6665077 1.0243039-2.8283931 2.6991949-3.2041639 4.6188935-.3757708 1.9196985.0688575 3.909056 1.2261639 5.4861065 3.0558278 3.9914266 8.6615157 4.9732481 12.892 2.258 2.5026043-1.5739978 4.2367385-4.1190371 4.786-7.024 1.863-10.082-11.506-17.633-21.235-11.349-3.7330736 2.2881078-6.3373208 6.0350066-7.1808088 10.331494s.1508774 8.7498671 2.7418088 12.279506c6.553 8.96 18.583 8.984 28.495 2.584z"/></g></svg>