<?xml version="1.0" encoding="UTF-8"?>
<svg xmlns="http://www.w3.org/2000/svg" id="Layer_1" data-name="Layer 1" viewBox="0 0 512 512" width="512" height="512"><path d="M474.852,25H38.205A27.005,27.005,0,0,0,11,51.886V375.444C11,390.414,23.236,403,38.205,403H189v25.393a15.069,15.069,0,0,1-15.035,15.148,37.6,37.6,0,0,0-37.664,37.59A5.938,5.938,0,0,0,142.357,487h222.05a5.89,5.89,0,0,0,6-5.869,37.512,37.512,0,0,0-37.49-37.656A14.913,14.913,0,0,1,318,428.393V403H474.852C489.822,403,502,390.414,502,375.444V51.886A26.956,26.956,0,0,0,474.852,25ZM332.917,455.41A25.709,25.709,0,0,1,357.7,475H149.064a25.846,25.846,0,0,1,24.9-19.59A26.971,26.971,0,0,0,201,428.393V403H306v25.393A26.871,26.871,0,0,0,332.917,455.41ZM490,317H155a6,6,0,0,0,0,12H490v46.444c0,8.353-6.8,15.556-15.148,15.556H38.205c-8.352,0-15.2-7.2-15.2-15.556V329h90a6,6,0,0,0,0-12H23V51.886A14.993,14.993,0,0,1,38.205,37H474.852A14.943,14.943,0,0,1,490,51.886Z"/><path d="M253.382,376.157a16.574,16.574,0,1,0-16.574-16.574A16.593,16.593,0,0,0,253.382,376.157Zm0-21.147a4.574,4.574,0,1,1-4.574,4.573A4.579,4.579,0,0,1,253.382,355.01Z"/><path d="M47,56a6,6,0,0,0-6,6v2a6,6,0,0,0,12,0V62A6,6,0,0,0,47,56Z"/><path d="M47,78a6,6,0,0,0-6,6v92a6,6,0,0,0,12,0V84A6,6,0,0,0,47,78Z"/><path d="M389.853,67H123.147A27.147,27.147,0,0,0,96,94.147V256.853A27.147,27.147,0,0,0,123.147,284H389.853A27.147,27.147,0,0,0,417,256.853V94.147A27.147,27.147,0,0,0,389.853,67ZM405,257.058A15.071,15.071,0,0,1,389.759,272H123.3A15.121,15.121,0,0,1,108,257.058V248h82.737a19.955,19.955,0,0,0,38.065,0H405Zm-203.188-15.4a7.958,7.958,0,1,1,7.957,7.957A7.965,7.965,0,0,1,201.812,241.662ZM405,236H228.8a19.955,19.955,0,0,0-38.065,0H108V207H296.475c2.553,9,10.118,13.958,19.032,13.958S331.986,216,334.54,207H405Zm-97.45-34.519a7.958,7.958,0,1,1,7.957,7.958A7.967,7.967,0,0,1,307.55,201.481ZM405,195H334.54a19.955,19.955,0,0,0-38.065,0H108V94.221A15.357,15.357,0,0,1,123.3,79h266.46A15.308,15.308,0,0,1,405,94.221Z"/><path d="M274.287,129.249,251.952,113.8a5.6,5.6,0,0,0-5.969-.38A5.8,5.8,0,0,0,243,118.738v30.889a5.794,5.794,0,0,0,2.981,5.314,5.546,5.546,0,0,0,2.67.686,5.816,5.816,0,0,0,3.355-1.065l22.3-15.443a6.006,6.006,0,0,0-.022-9.87ZM255,138.183v-8l5.784,4Z"/><path d="M256.529,86.945a47.238,47.238,0,1,0,47.238,47.239A47.292,47.292,0,0,0,256.529,86.945Zm0,82.476a35.238,35.238,0,1,1,35.238-35.237A35.277,35.277,0,0,1,256.529,169.421Z"/></svg>
