<svg id="Capa_1" enable-background="new 0 0 512 512" height="512" viewBox="0 0 512 512" width="512" xmlns="http://www.w3.org/2000/svg"><g><path d="m256 105c28.948 0 52.5-23.552 52.5-52.5s-23.552-52.5-52.5-52.5-52.5 23.552-52.5 52.5 23.552 52.5 52.5 52.5zm0-90c20.678 0 37.5 16.822 37.5 37.5s-16.822 37.5-37.5 37.5-37.5-16.822-37.5-37.5 16.822-37.5 37.5-37.5z"/><path d="m479.837 426.797-101.612-101.612-47.137-50.606c-2.822-3.031-7.569-3.199-10.6-.376-.066.062-.131.125-.195.188-2.841 2.841-2.942 7.447-.181 10.412l42.293 45.406-32.19 32.19-63.209-58.875 228.268-212.616.098-.091c.43-.399.858-.8 1.275-1.218 20.47-20.469 20.47-53.777.001-74.247-20.469-20.469-53.777-20.469-74.247.001-.418.418-.818.846-1.218 1.275l-165.183 177.344-165.093-177.246-.091-.098c-.4-.43-.8-.858-1.217-1.275-20.469-20.469-53.777-20.469-74.246 0s-20.469 53.777 0 74.246c.418.418.845.818 1.276 1.217l179.622 167.305-62.451 67.047-101.632 101.632c-8.36-3.978-18.677-2.536-25.589 4.375-8.772 8.772-8.772 23.047 0 31.82l42.427 42.427c8.772 8.772 23.047 8.772 31.82 0 6.911-6.911 8.353-17.228 4.375-25.588l101.632-101.632 69.17-64.427 69.188 64.444 101.611 101.611c-3.981 8.361-2.539 18.681 4.373 25.593 8.773 8.772 23.047 8.772 31.82 0l42.427-42.427c8.772-8.772 8.772-23.047 0-31.82-6.911-6.911-17.225-8.354-25.585-4.379zm-452.894-346.872-.101-.094c-.297-.276-.595-.55-.883-.838-14.621-14.621-14.621-38.412 0-53.033s38.412-14.621 53.033 0c.288.288.562.586.838.882l165.921 178.134-39.278 42.17zm43.276 414.889c-2.924 2.924-7.682 2.924-10.607 0l-42.426-42.426c-2.924-2.925-2.924-7.682 0-10.607s7.682-2.925 10.607 0l42.426 42.427c2.924 2.924 2.924 7.682 0 10.606zm5.304-26.516-31.82-31.82 74.26-74.26 31.82 31.82zm84.867-84.867-31.82-31.82 10.607-10.606 31.82 31.82zm21.397-21.029-32.188-32.188 282.477-303.27.095-.102c.276-.297.55-.594.838-.883 14.621-14.621 38.412-14.622 53.034-.001 14.621 14.622 14.621 38.412-.001 53.034-.288.288-.586.562-.883.838zm159.221 10.418 31.82-31.82 10.607 10.607-31.82 31.82zm21.213 21.214 31.82-31.82 74.26 74.26-31.82 31.82zm132.593 58.354-42.426 42.426c-2.924 2.924-7.682 2.924-10.607 0-2.924-2.924-2.924-7.682 0-10.606l42.426-42.427c2.924-2.925 7.682-2.925 10.607 0 2.924 2.924 2.924 7.682 0 10.607z"/></g></svg>