<?xml version="1.0" encoding="utf-8"?>
<!-- Generator: Adobe Illustrator 18.0.0, SVG Export Plug-In . SVG Version: 6.00 Build 0)  -->
<!DOCTYPE svg PUBLIC "-//W3C//DTD SVG 1.1//EN" "http://www.w3.org/Graphics/SVG/1.1/DTD/svg11.dtd">
<svg version="1.1" id="Layer_1" xmlns="http://www.w3.org/2000/svg" xmlns:xlink="http://www.w3.org/1999/xlink" x="0px" y="0px"
	 viewBox="0 0 61.5 52.5" enable-background="new 0 0 61.5 52.5" xml:space="preserve">
<g>
	<path d="M23.3,35.6h-1.8c-0.5,0-0.9,0.4-0.9,0.9c0,0.5,0.4,0.9,0.9,0.9h1.8c0.5,0,0.9-0.4,0.9-0.9C24.2,36,23.8,35.6,23.3,35.6
		L23.3,35.6z M23.3,35.6"/>
	<path d="M59.4,39.6h-0.5v-2.5c0-1.8-1.4-3.4-3.2-3.6l-10-1.3l-3.9-6.8c-0.4-0.6-1-1-1.7-1c-0.6,0-1.3,0.3-1.6,0.8
		c-0.4,0.5-0.5,1.2-0.3,1.8l1.7,5H24l-1.1-7.4c-0.2-1.4-1.4-2.4-2.7-2.4c-1.5,0-2.8,1.2-2.8,2.8V29L7.2,30.1
		c-1.6,0.2-2.7,1.5-2.7,3.1v6.3H4.2c-0.1,0-0.1,0-0.2,0c0,0-0.1,0-0.1,0c0,0-0.1,0-0.1,0c0,0-0.1,0-0.1,0c0,0,0,0-0.1,0
		c0,0-0.1,0-0.1,0c0,0,0,0,0,0c0,0,0,0,0,0c0,0-0.1,0-0.1,0c0,0,0,0,0,0c0,0,0,0,0,0c0,0-0.1,0-0.1,0.1c0,0,0,0-0.1,0
		c0,0-0.1,0-0.1,0.1c0,0,0,0,0,0c0,0,0,0,0,0c0,0,0,0,0,0c0,0-0.1,0.1-0.1,0.1c0,0,0,0,0,0c-0.1,0.1-0.2,0.2-0.2,0.3
		c0,0.1-0.1,0.1-0.1,0.2c-0.1,0.1-0.1,0.2-0.2,0.4c0,0.1,0,0.1,0,0.2c0,0,0,0,0,0.1c0,0,0,0.1,0,0.1c0,0,0,0,0,0.1
		c0,0.1,0,0.1,0,0.2v1.3c0,1.1,0.9,2.1,2.1,2.1h3.8c0.3,1.1,0.8,2.2,1.7,3.1c1.3,1.3,2.9,1.9,4.6,1.9c1.6,0,3.3-0.6,4.6-1.9
		c0.9-0.9,1.5-2,1.7-3.1h21.6c0.3,1.1,0.8,2.2,1.7,3.1c1.3,1.3,2.9,1.9,4.6,1.9c1.6,0,3.3-0.6,4.6-1.9c0.9-0.9,1.5-2,1.7-3.1h4.5
		c1.1,0,1.9-0.9,1.9-1.9v-1.4C61.2,40.5,60.4,39.6,59.4,39.6L59.4,39.6z M39.8,26.6c0-0.1,0-0.2,0-0.3c0,0,0.1-0.1,0.2-0.1
		c0.1,0,0.2,0.1,0.2,0.1l3.4,5.8h-2L39.8,26.6z M19.1,25.2L19.1,25.2c0-0.6,0.5-1,1-1c0.5,0,1,0.4,1,0.9l1.1,7.1h-1
		c-0.4,0-0.8-0.4-0.8-0.8c0-0.1,0-0.1,0-0.2c0,0,0,0,0-0.1c0,0,0-0.1,0-0.1c0,0,0,0,0-0.1c0,0,0,0,0-0.1c0-0.1,0-0.1,0-0.2
		c0,0,0,0,0,0c0,0,0-0.1,0-0.1c0,0,0,0,0,0c-0.1-0.2-0.1-0.3-0.2-0.5l0,0C20,30,20,29.9,19.8,29.8c0,0,0,0,0,0c0,0,0-0.1-0.1-0.1
		c0,0,0,0,0,0c0,0,0,0-0.1-0.1c0,0,0,0,0,0c0,0,0,0,0,0c0,0-0.1-0.1-0.1-0.1c0,0,0,0-0.1,0c0,0,0,0-0.1,0c0,0,0,0-0.1,0
		c0,0,0,0-0.1,0c0,0-0.1,0-0.1-0.1c0,0,0,0,0,0V25.2z M7.9,43H4.3c-0.2,0-0.3-0.1-0.3-0.3v-1.3c0,0,0,0,0-0.1c0,0,0,0,0,0
		c0,0,0,0,0,0c0,0,0,0,0-0.1c0,0,0,0,0,0c0,0,0,0,0,0c0,0,0,0,0,0c0,0,0,0,0,0c0,0,0,0,0,0c0,0,0,0,0,0c0,0,0,0,0,0c0,0,0,0,0,0
		c0,0,0,0,0,0l4.1,0C8.1,41.8,7.9,42.4,7.9,43L7.9,43z M17.7,46.7c-1.8,1.8-4.8,1.8-6.7,0c-1.2-1.2-1.6-2.9-1.2-4.4c0,0,0,0,0,0
		c0-0.1,0-0.1,0.1-0.2c0,0,0,0,0-0.1c0,0,0-0.1,0-0.1c0,0,0-0.1,0-0.1c0,0,0-0.1,0-0.1c0,0,0-0.1,0-0.1c0,0,0-0.1,0-0.1
		c0,0,0-0.1,0-0.1c0,0,0-0.1,0.1-0.1c0,0,0,0,0,0c0,0,0,0,0-0.1c0,0,0-0.1,0.1-0.1c0,0,0-0.1,0.1-0.1c0,0,0,0,0,0c0,0,0-0.1,0.1-0.1
		c0,0,0-0.1,0.1-0.1c0,0,0-0.1,0.1-0.1c0,0,0.1-0.1,0.1-0.1c0,0,0-0.1,0.1-0.1c0,0,0.1-0.1,0.1-0.1c0,0,0,0,0.1-0.1
		c0.1-0.1,0.1-0.1,0.2-0.2c0.9-0.9,2.1-1.4,3.3-1.4c0.2,0,0.3,0,0.5,0c1.1,0.1,2.1,0.6,2.9,1.4c0,0,0,0,0,0c0.1,0.1,0.1,0.1,0.1,0.2
		c0,0,0,0.1,0.1,0.1c0,0,0.1,0.1,0.1,0.1c0,0,0,0.1,0.1,0.1c0,0,0.1,0.1,0.1,0.1c0,0,0,0.1,0.1,0.1c0,0,0,0.1,0.1,0.1
		c0,0,0,0.1,0.1,0.1c0,0,0,0.1,0.1,0.1c0,0,0.1,0.1,0.1,0.1c0,0,0,0,0,0.1c0,0.1,0.1,0.1,0.1,0.2c0,0,0,0,0,0
		C19.4,43.1,19.1,45.3,17.7,46.7L17.7,46.7z M51.8,46.7c-1.8,1.8-4.8,1.8-6.7,0c-1.4-1.4-1.7-3.5-1-5.3c0,0,0,0,0,0
		c0-0.1,0-0.1,0.1-0.2c0,0,0,0,0-0.1c0,0,0-0.1,0.1-0.1c0,0,0-0.1,0.1-0.1c0,0,0-0.1,0.1-0.1c0,0,0-0.1,0.1-0.1c0,0,0-0.1,0.1-0.1
		c0,0,0.1-0.1,0.1-0.1c0,0,0-0.1,0.1-0.1c0,0,0.1-0.1,0.1-0.1c0,0,0,0,0.1-0.1c0.1-0.1,0.1-0.1,0.2-0.2c0.1-0.1,0.1-0.1,0.2-0.2
		c0,0,0,0,0,0c0.1,0,0.1-0.1,0.2-0.1c0,0,0,0,0,0c0.9-0.7,1.9-1.1,3-1.1c1.1,0,2.1,0.3,3,1c0,0,0,0,0,0c0.1,0,0.1,0.1,0.2,0.1
		c0,0,0,0,0,0c0.1,0.1,0.1,0.1,0.2,0.2c0,0,0,0,0,0c0,0,0,0,0,0c0.1,0.1,0.1,0.1,0.2,0.2c0,0,0,0,0,0c0,0.1,0.1,0.1,0.1,0.2
		c0,0,0,0,0,0c0,0.1,0.1,0.1,0.1,0.2c0,0,0,0,0,0c0.1,0.1,0.1,0.2,0.2,0.2c0,0,0,0,0,0c0,0,0,0,0,0c0,0,0,0,0,0.1c0,0,0,0.1,0.1,0.1
		c0,0,0,0,0,0.1c0,0,0,0.1,0.1,0.1c0,0,0,0,0,0.1c0,0,0,0.1,0.1,0.1c0,0,0,0,0,0.1c0,0.1,0,0.1,0.1,0.2c0,0,0,0.1,0,0.1
		c0,0,0,0.1,0,0.1c0,0,0,0.1,0,0.1c0,0,0,0.1,0,0.1c0,0,0,0.1,0,0.1c0,0,0,0.1,0,0.1c0,0,0,0,0,0.1C53.4,44,53,45.5,51.8,46.7
		L51.8,46.7z M53.7,39.6c0-0.1-0.1-0.1-0.1-0.2c0,0,0-0.1-0.1-0.1c0,0-0.1-0.1-0.1-0.1c0,0-0.1-0.1-0.1-0.1c0,0-0.1-0.1-0.1-0.1
		c-0.1-0.1-0.1-0.1-0.2-0.2c0,0,0,0,0,0c0,0,0,0-0.1-0.1c-0.1-0.1-0.1-0.1-0.2-0.2c0,0,0,0-0.1,0c-0.1-0.1-0.1-0.1-0.2-0.2
		c0,0,0,0,0,0c-1.1-0.9-2.6-1.4-4-1.4c-1.5,0-2.9,0.5-4.1,1.4c0,0,0,0,0,0c-0.1,0.1-0.1,0.1-0.2,0.2c0,0,0,0,0,0
		c-0.1,0.1-0.2,0.1-0.2,0.2c-0.1,0.1-0.1,0.2-0.2,0.2c0,0,0,0.1-0.1,0.1c0,0.1-0.1,0.1-0.1,0.2c0,0,0,0.1-0.1,0.1
		c0,0.1-0.1,0.1-0.1,0.2c0,0,0,0.1-0.1,0.1c0,0.1-0.1,0.1-0.1,0.2c0,0,0,0.1-0.1,0.1c0,0.1-0.1,0.1-0.1,0.2c0,0,0,0,0,0.1
		c0,0.1-0.1,0.1-0.1,0.2c0,0,0,0,0,0c0,0.1-0.1,0.2-0.1,0.3c0,0,0,0,0,0c-0.3,0.7-0.5,1.6-0.6,2.4H20.8c0-0.8-0.2-1.6-0.6-2.4
		c0,0,0,0,0,0c0-0.1-0.1-0.2-0.1-0.3c0,0,0,0,0,0c0-0.1-0.1-0.1-0.1-0.2c0,0,0,0,0-0.1c0-0.1-0.1-0.1-0.1-0.2c0,0,0-0.1-0.1-0.1
		c0-0.1-0.1-0.1-0.1-0.2c0,0,0-0.1-0.1-0.1c0-0.1-0.1-0.1-0.1-0.2c0,0,0-0.1-0.1-0.1c0-0.1-0.1-0.1-0.1-0.2c0,0,0-0.1-0.1-0.1
		C19,39,19,38.9,18.9,38.8c-1.2-1.2-2.8-1.9-4.6-1.9c-1.7,0-3.3,0.7-4.6,1.9C9.7,38.9,9.6,39,9.6,39c0,0,0,0.1-0.1,0.1
		c0,0.1-0.1,0.1-0.1,0.2c0,0,0,0.1-0.1,0.1c0,0-0.1,0.1-0.1,0.1h-3v-6.3c0-0.7,0.5-1.3,1.2-1.3l10.5-1.1c0.1,0,0.1,0,0.2,0
		c0,0,0,0,0,0c0.1,0,0.3,0.1,0.4,0.2c0,0,0,0,0,0c0,0,0.1,0.1,0.1,0.1c0,0,0,0,0,0c0.1,0.1,0.1,0.1,0.1,0.2c0,0,0,0,0,0
		c0,0,0,0.1,0,0.1c0,0,0,0,0,0c0,0,0,0.1,0,0.1c0,1.4,1.1,2.5,2.5,2.5h23.9l10.4,1.3c1,0.1,1.7,0.9,1.7,1.9v2.5L53.7,39.6
		C53.8,39.6,53.7,39.6,53.7,39.6L53.7,39.6z M59.3,43h-4.4c0-0.2,0-0.4-0.1-0.6c0,0,0,0,0,0c0-0.1,0-0.2,0-0.3c0,0,0-0.1,0-0.1
		c0-0.1,0-0.1,0-0.2c0,0,0-0.1,0-0.1c0-0.1,0-0.2-0.1-0.2c0,0,0-0.1,0-0.1c0,0,0-0.1,0-0.1h4.7c0.1,0,0.1,0.1,0.1,0.1v1.4
		C59.5,43,59.4,43,59.3,43L59.3,43z M59.3,43"/>
	<path d="M48.5,40.3c-1.7,0-3.1,1.4-3.1,3.1c0,1.7,1.4,3.1,3.1,3.1c1.7,0,3.1-1.4,3.1-3.1C51.6,41.7,50.2,40.3,48.5,40.3L48.5,40.3z
		 M48.5,44.7c-0.8,0-1.4-0.6-1.4-1.4c0-0.8,0.6-1.4,1.4-1.4c0.8,0,1.4,0.6,1.4,1.4C49.9,44.1,49.3,44.7,48.5,44.7L48.5,44.7z
		 M48.5,44.7"/>
	<path d="M14.3,40.3c-1.7,0-3.1,1.4-3.1,3.1c0,1.7,1.4,3.1,3.1,3.1c1.7,0,3.1-1.4,3.1-3.1C17.4,41.7,16,40.3,14.3,40.3L14.3,40.3z
		 M14.3,44.7c-0.8,0-1.4-0.6-1.4-1.4c0-0.8,0.6-1.4,1.4-1.4c0.8,0,1.4,0.6,1.4,1.4C15.7,44.1,15.1,44.7,14.3,44.7L14.3,44.7z
		 M14.3,44.7"/>
	<path d="M41.9,5.7c-1.4-1.3-3.2-2.1-5.1-2.1c-1.9,0-3.7,0.7-5.1,2c-1.4-1.3-3.1-2-5.1-2c-1.9,0-3.7,0.7-5.1,2.1
		c-1.4,1.3-2.1,3.1-2.2,5.1c0,0.5,0.4,0.9,0.8,0.9c0,0,0,0,0,0c0.5,0,0.9-0.4,0.9-0.8c0.1-3,2.6-5.4,5.6-5.4c1.7,0,3.3,0.8,4.4,2.1
		c0.2,0.2,0.4,0.3,0.7,0.3c0.3,0,0.5-0.1,0.7-0.3c1.1-1.4,2.7-2.1,4.4-2.1c3,0,5.5,2.4,5.6,5.4c0,0.5,0.4,0.8,0.9,0.8c0,0,0,0,0,0
		c0.5,0,0.9-0.4,0.8-0.9C44,8.9,43.3,7.1,41.9,5.7L41.9,5.7z M41.9,5.7"/>
	<path d="M42.7,14c-0.4-0.2-0.9,0-1.2,0.4c-2.2,4.6-8.3,7.5-9.8,8.1c-1.5-0.6-7.5-3.5-9.8-8.1c-0.2-0.4-0.7-0.6-1.2-0.4
		c-0.4,0.2-0.6,0.7-0.4,1.2c1.2,2.5,3.4,4.8,6.6,6.8c2.3,1.5,4.3,2.3,4.4,2.3c0.1,0,0.2,0.1,0.3,0.1c0.1,0,0.2,0,0.3-0.1
		c0.1,0,2.1-0.8,4.4-2.3c3.2-2,5.4-4.3,6.6-6.8C43.3,14.8,43.1,14.2,42.7,14L42.7,14z M42.7,14"/>
</g>
</svg>
