<svg id="Capa_1" enable-background="new 0 0 512 512" height="512" viewBox="0 0 512 512" width="512" xmlns="http://www.w3.org/2000/svg"><g><path d="m217.532 382.951c-5.287-5.287-13.55-5.791-19.427-1.554l-41.054-64.13c-4.548-7.104-12.833-10.63-21.102-8.967-10.896 2.183-17.936 12.469-16.024 23.416l6.342 36.33c.651 3.73-.767 7.316-3.795 9.592-3.027 2.275-6.866 2.64-10.269.977-28.973-14.165-49.967-40.261-57.598-71.594l-8.036-32.995c-4.512-18.528-28.271-26.604-40.841-13.268-4.163 4.417-6.215 10.414-5.63 16.456 7.449 76.811 52.119 144.955 119.532 182.447-5.012 5.906-4.742 14.791.828 20.363l29.779 29.779c1.407 1.406 3.314 2.196 5.304 2.196s3.896-.79 5.304-2.196l86.465-86.466c2.929-2.93 2.929-7.678 0-10.607zm-202.502-107.183c-.229-2.372.912-3.976 1.614-4.72 2.222-2.36 5.149-1.87 4.988-1.876 5.021.188 9.186 3.565 10.363 8.403l8.036 32.995c8.689 35.679 32.594 65.392 65.584 81.521 8.443 4.127 18.356 3.185 25.868-2.462 7.514-5.646 11.177-14.904 9.561-24.163l-6.342-36.33c-.501-2.865 1.342-5.557 4.193-6.129 2.168-.432 4.332.487 5.522 2.348l42.711 66.718-56.524 56.525c-.908-.843-103.569-49.033-115.574-172.83zm140.519 218.12-24.481-24.537 75.858-75.793 24.476 24.477z"/><path d="m126.156 190.814c4.143 0 7.5-3.357 7.5-7.5s-3.357-7.5-7.5-7.5h-4.704c-4.143 0-7.5 3.357-7.5 7.5s3.357 7.5 7.5 7.5z"/><path d="m73.061 195.302c3.423-2.332 4.308-6.998 1.976-10.421-4.552-6.681-7.467-14.23-8.595-22.156h114.722c-3.652 25.548-25.679 45.252-52.221 45.252h-10.278c-8.385 0-16.416-1.923-23.87-5.714-3.691-1.879-8.208-.408-10.085 3.284-1.878 3.692-.407 8.207 3.284 10.085 9.581 4.874 19.9 7.345 30.671 7.345h10.278c37.358 0 67.752-30.394 67.752-67.752 0-4.143-3.357-7.5-7.5-7.5h-15.07l-28.041-67.01h80.967v197.196h-19.108c-13.001 0-23.578 10.576-23.578 23.577v20.192c0 4.143 3.357 7.5 7.5 7.5h128.27c4.143 0 7.5-3.357 7.5-7.5v-20.192c0-13.001-10.576-23.577-23.577-23.577h-19.108v-197.196h80.967l-28.04 67.01h-15.071c-4.143 0-7.5 3.357-7.5 7.5 0 37.358 30.394 67.752 67.752 67.752h10.279c37.358 0 67.752-30.394 67.752-67.752 0-4.143-3.357-7.5-7.5-7.5h-15.07l-28.041-67.01h15.682c4.143 0 7.5-3.357 7.5-7.5v-9.36c0-9.694-5.135-18.207-12.826-22.974l4.502-4.502c2.929-2.929 2.929-7.678-.001-10.606-2.928-2.928-7.677-2.929-10.606.001l-11.069 11.069h-32.488c-4.143 0-7.5 3.357-7.5 7.5s3.357 7.5 7.5 7.5h35.476c6.624 0 12.013 5.389 12.013 12.012v1.86h-325.319v-1.86c0-6.623 5.389-12.012 12.013-12.012h235.829c4.143 0 7.5-3.357 7.5-7.5s-3.357-7.5-7.5-7.5h-48.741v-.4c-.001-20.095-16.348-36.443-36.443-36.443-20.094 0-36.441 16.348-36.441 36.442v.4h-111.217l-11.069-11.069c-2.93-2.929-7.679-2.93-10.606-.001-2.93 2.929-2.93 7.678-.001 10.606l4.502 4.502c-7.69 4.766-12.826 13.28-12.826 22.974v9.36c0 4.143 3.357 7.5 7.5 7.5h15.682l-28.041 67.01h-15.07c-4.143 0-7.5 3.357-7.5 7.5 0 13.665 4.056 26.84 11.728 38.102 2.332 3.424 6.999 4.31 10.42 1.976zm161.497-158.86c0-11.823 9.619-21.442 21.442-21.442s21.442 9.619 21.442 21.442v.4h-42.884zm78.077 265.046v12.692h-113.27v-12.692c0-4.729 3.848-8.577 8.578-8.577h96.114c4.73 0 8.578 3.848 8.578 8.577zm80.701-93.511h-10.279c-26.542 0-48.568-19.704-52.221-45.252h114.721c-3.653 25.547-25.679 45.252-52.221 45.252zm.88-127.262 28.041 67.01h-68.12l28.04-67.01zm-124.267 0v197.196h-27.897v-197.196zm-152.164 0h12.038l28.041 67.01h-68.12z"/><path d="m390.548 175.814h-4.703c-4.143 0-7.5 3.357-7.5 7.5s3.357 7.5 7.5 7.5h4.703c4.143 0 7.5-3.357 7.5-7.5s-3.358-7.5-7.5-7.5z"/><path d="m506.271 260.758c-12.54-13.299-36.301-5.377-40.842 13.268l-8.035 32.996c-7.632 31.334-28.626 57.43-57.599 71.595-3.403 1.662-7.242 1.298-10.269-.978-3.028-2.275-4.446-5.861-3.795-9.592l6.343-36.33c1.911-10.947-5.128-21.233-16.025-23.417-8.27-1.655-16.553 1.863-21.101 8.968l-41.054 64.13c-5.878-4.237-14.142-3.73-19.428 1.554l-29.779 29.779c-2.929 2.93-2.929 7.678 0 10.607l86.466 86.466c1.465 1.464 3.385 2.196 5.304 2.196s3.839-.732 5.304-2.196l29.779-29.779c5.569-5.57 5.841-14.452.832-20.36 9.552-5.313 18.876-11.401 27.722-18.113 3.3-2.504 3.945-7.208 1.441-10.508-2.502-3.299-7.206-3.945-10.508-1.441-15.208 11.537-27.954 17.999-29.632 18.996l-56.525-56.524 42.711-66.718c1.19-1.859 3.359-2.774 5.521-2.348 2.853.572 4.695 3.264 4.194 6.129l-6.343 36.33c-1.616 9.259 2.048 18.518 9.561 24.163 7.513 5.646 17.426 6.589 25.868 2.462 32.99-16.129 56.895-45.843 65.585-81.521l8.035-32.996c2.629-10.798 17.843-10.83 16.967-1.807-4.936 50.891-27.68 98.771-64.043 134.82-2.941 2.916-2.962 7.665-.046 10.606s7.663 2.964 10.606.046c38.844-38.508 63.14-89.657 68.412-144.025.588-6.042-1.464-12.041-5.627-16.458zm-149.813 233.136-75.854-75.854 24.537-24.481 75.792 75.858z"/></g></svg>