<svg id="Capa_1" enable-background="new 0 0 512.011 512.011" height="512" viewBox="0 0 512.011 512.011" width="512" xmlns="http://www.w3.org/2000/svg"><g id="XMLID_1651_"><g id="XMLID_695_"><path id="XMLID_700_" d="m503.011 407.301-48.525-48.525c-13.549-13.549-23.062-30.561-27.511-49.198l-3.717-15.571c-2.234-9.358-7.011-17.902-13.815-24.706l-66.746-66.745c-1.875-1.875-4.418-2.929-7.071-2.929-1.167 0-2.309.215-3.386.603l-29.502-29.502 22.122-22.122c1.875-1.876 2.929-4.419 2.929-7.071 0-.977-.145-1.938-.42-2.858l92.724-92.724c3.905-3.905 3.905-10.237 0-14.143l-28.88-28.881c-3.905-3.904-10.237-3.904-14.143 0l-98.943 98.943-22.122 22.122-22.122-22.122c-.002-.001-.003-.003-.005-.004l-17.649-17.649c-3.905-3.904-10.237-3.904-14.142 0-3.905 3.905-3.905 10.237 0 14.143l10.582 10.582-14.739 14.739-84.8-84.802 14.739-14.738 10.58 10.58c3.906 3.905 10.238 3.905 14.142 0 3.905-3.905 3.906-10.237 0-14.143l-17.651-17.651c-1.876-1.875-4.419-2.929-7.071-2.929s-5.196 1.054-7.071 2.929l-28.881 28.881c-3.905 3.905-3.905 10.237 0 14.143l92.721 92.721c-1.013 3.405-.176 7.244 2.512 9.932l22.122 22.123-29.502 29.501c-1.077-.388-2.219-.604-3.386-.604-2.652 0-5.196 1.054-7.071 2.929l-66.745 66.745c-6.804 6.804-11.581 15.348-13.815 24.706l-3.717 15.571c-4.449 18.638-13.962 35.649-27.511 49.198l-48.525 48.526c-5.8 5.8-8.995 13.512-8.995 21.715s3.195 15.915 8.995 21.714l52.265 52.265c5.869 5.868 13.585 9.016 21.599 9.016 2.545 0 5.122-.318 7.677-.967 10.599-2.692 18.78-10.561 21.885-21.047l24.917-84.162c3.427 2.89 7.439 5.076 11.864 6.395 3.137.935 6.304 1.379 9.421 1.379 14.237 0 27.416-9.285 31.686-23.61l11.079-37.177c1.692-5.679 1.771-11.458.518-16.854l17.309-17.31c9.908-9.908 9.908-26.029 0-35.938l-12.381-12.381 15.131-15.131c1.837-1.837 2.799-4.211 2.907-6.617l31.131-31.131 31.131 31.131c.109 2.406 1.07 4.78 2.907 6.617l15.131 15.131-12.382 12.381c-9.908 9.908-9.908 26.029 0 35.938l17.309 17.31c-1.253 5.396-1.175 11.176.518 16.854l11.079 37.177c4.27 14.326 17.447 23.611 31.686 23.61 3.116 0 6.285-.445 9.421-1.379 4.425-1.319 8.437-3.505 11.864-6.395l24.917 84.162c3.104 10.486 11.286 18.354 21.885 21.047 2.556.649 5.131.967 7.677.967 8.012 0 15.73-3.148 21.599-9.016l52.264-52.265c5.8-5.8 8.995-13.512 8.995-21.715s-3.198-15.914-8.998-21.714zm-167.385-183.532 52.815 52.814-30.858 17.881-46.326-46.326zm48.516-199.626 14.739 14.738-84.801 84.801-14.739-14.739zm-98.943 98.943 18.448 18.449-15.051 15.05-18.448-18.448zm-108.814 100.683 24.369 24.369-46.326 46.326-30.858-17.881zm-83.137 260.55c-1.561 5.271-5.857 6.89-7.632 7.34-1.774.452-6.321 1.081-10.208-2.807l-52.265-52.265c-2.022-2.022-3.136-4.712-3.136-7.572s1.114-5.55 3.137-7.572l48.525-48.525c16.164-16.165 27.514-36.462 32.821-58.696l3.717-15.571c.539-2.259 1.327-4.436 2.328-6.506l33.809 19.591zm88.976-137.21-11.079 37.177c-2.055 6.895-9.335 10.832-16.228 8.776-3.339-.995-6.091-3.23-7.749-6.296-1.657-3.064-2.022-6.592-1.027-9.931l11.079-37.177c1.686-5.656 6.888-9.321 12.508-9.321 1.23 0 2.481.176 3.719.544 6.894 2.057 10.832 9.336 8.777 16.228zm22.851-42.593-13.818 13.818c-3.421-2.95-7.495-5.247-12.097-6.619-4.167-1.241-8.388-1.609-12.473-1.227l26.006-26.006 12.381 12.381c2.112 2.11 2.112 5.543.001 7.653zm7.967-72.376-18.449-18.448 28.822-28.821 18.448 18.448zm85.927 0-90.606-90.605 18.448-18.449 90.606 90.605zm21.785 86.194-13.818-13.818c-2.11-2.109-2.11-5.543 0-7.652l12.382-12.381 26.005 26.004c-4.085-.382-8.305-.013-12.471 1.229-4.603 1.371-8.678 3.669-12.098 6.618zm44.088 68.433c-1.658 3.065-4.41 5.301-7.749 6.296-6.892 2.059-14.173-1.883-16.228-8.776l-11.079-37.177c-2.055-6.893 1.883-14.172 8.776-16.227 1.238-.369 2.488-.545 3.719-.545 5.62 0 10.823 3.666 12.508 9.321l11.079 37.177c.996 3.339.632 6.866-1.026 9.931zm124.027 49.821-52.265 52.265c-3.886 3.887-8.433 3.259-10.208 2.807-1.775-.45-6.071-2.068-7.632-7.34l-51.096-172.584 33.809-19.591c1.001 2.07 1.789 4.247 2.328 6.506l3.717 15.571c5.308 22.234 16.657 42.531 32.821 58.696l48.526 48.525c2.022 2.022 3.136 4.712 3.136 7.572s-1.113 5.55-3.136 7.573z"/><path id="XMLID_749_" d="m177.335 69.47c2.64 0 5.21-1.06 7.08-2.93 1.86-1.86 2.92-4.44 2.92-7.07s-1.06-5.21-2.92-7.07c-1.86-1.859-4.44-2.93-7.08-2.93-2.63 0-5.2 1.07-7.07 2.93-1.86 1.86-2.92 4.44-2.92 7.07s1.06 5.21 2.92 7.07c1.87 1.87 4.45 2.93 7.07 2.93z"/></g></g></svg>