<svg id="Icons" height="512" viewBox="0 0 74 74" width="512" xmlns="http://www.w3.org/2000/svg"><path d="m24.136 38.723a6.442 6.442 0 0 1 -1.28-.129l-.693-.141a6.359 6.359 0 0 1 -4.963-7.522l2.929-14.131 1.959.406-2.929 14.131a4.357 4.357 0 0 0 3.4 5.156l.693.141a4.36 4.36 0 0 0 5.163-3.539l3.361-19.7a4.359 4.359 0 0 0 -3.722-5.055 4.367 4.367 0 0 0 -4.841 3.437l-.293 1.413-1.959-.405.293-1.414a6.375 6.375 0 0 1 7.063-5.013 6.356 6.356 0 0 1 5.432 7.373l-3.361 19.7a6.364 6.364 0 0 1 -6.251 5.292z"/><path d="m44.847 72a2.806 2.806 0 0 1 -2.79-2.538l-1.466-15.317-4.4-6.547-2.451 7.584-6.084 14.527a2.805 2.805 0 0 1 -3.748 1.469l-.908-.411a2.8 2.8 0 0 1 -1.437-3.614l5.905-14.476v-13.965a.977.977 0 0 1 .015-.168l3.097-18.129a7.164 7.164 0 0 1 7.085-5.979h.035a7.189 7.189 0 0 1 7.085 8.19l-.329 2.339-1.98-.278.329-2.339a5.189 5.189 0 0 0 -5.114-5.912h-.024a5.172 5.172 0 0 0 -5.115 4.316l-3.08 18.048v14.074a1 1 0 0 1 -.074.378l-5.98 14.657a.8.8 0 0 0 .412 1.037l.905.411a.806.806 0 0 0 1.077-.421l6.054-14.447 3.049-9.465a1 1 0 0 1 1.782-.251l5.7 8.466a1 1 0 0 1 .165.463l1.489 15.569a.805.805 0 0 0 1.014.7.808.808 0 0 0 .593-.77l.141-17.175-5.445-11.015a1 1 0 0 1 -.094-.582l1.365-9.708 1.98.278-1.322 9.4 5.408 10.951a1 1 0 0 1 .1.451l-.143 17.413a2.806 2.806 0 0 1 -2.801 2.786z"/><path d="m41.178 14.39a6.2 6.2 0 1 1 6.2-6.195 6.2 6.2 0 0 1 -6.2 6.195zm0-10.39a4.2 4.2 0 1 0 4.2 4.2 4.2 4.2 0 0 0 -4.2-4.2z"/><path d="m53.758 37.053a3.156 3.156 0 0 1 -.853-.118l-8.175-2.289a.992.992 0 0 1 -.494-.318l-8.255-9.775a3.358 3.358 0 1 1 5.205-4.243l6.071 7.713 7.628 2.891a3.173 3.173 0 0 1 -1.127 6.139zm-8.193-4.253 7.879 2.206a1.172 1.172 0 0 0 .731-2.225l-7.887-2.981a1 1 0 0 1 -.432-.316l-6.243-7.932a1.363 1.363 0 0 0 -1.823-.288 1.359 1.359 0 0 0 -.281 2z"/><path d="m50.185 63.326h6.672v2h-6.672z" transform="matrix(.078 -.997 .997 .078 -14.765 112.692)"/><path d="m43.673 44.735h22.598v2h-22.598z" transform="matrix(.078 -.997 .997 .078 5.107 96.99)"/></svg>