<svg height="511pt" viewBox="-5 1 511 511.999" width="511pt" xmlns="http://www.w3.org/2000/svg"><path d="m498.078125 160.492188-.613281-.523438c.003906-.15625.007812-.3125.003906-.472656-1.699219-38.144532-18.09375-76.347656-44.980469-104.8125-28.109375-29.757813-64.421875-46.210938-102.246093-46.332032-.007813 0-.015626 0-.023438 0-1.992188 0-3.90625.792969-5.320312 2.199219-1.417969 1.414063-2.214844 3.335938-2.214844 5.339844v23.460937c0 4.148438 3.355468 7.515626 7.503906 7.535157 7.886719.03125 15.761719 1.347656 23.460938 3.820312l-83.734376 98.144531c-.101562.117188-.1875.242188-.28125.363282h-28.925781l-14.882812-19.285156c.828125.308593 1.714843.472656 2.632812.472656h6.734375c4.164063 0 7.535156-3.371094 7.535156-7.535156v-30.027344c0-12.253906-4.660156-23.433594-12.300781-31.867188.03125-.21875.058594-.4375.070313-.664062l2.878906-52.359375c.113281-2.066407-.625-4.089844-2.050781-5.59375-1.421875-1.503907-3.402344-2.355469-5.472657-2.355469h-45.320312c-32.378906 0-61.773438 18.648438-74.890625 47.515625-.359375.789063-.707031 1.589844-1.046875 2.398437-9.488281 22.691407-2.457031 46.191407 3.195312 65.070313.460938 1.542969.914063 3.0625 1.355469 4.558594 5.09375 17.355469-4.046875 42.59375-4.140625 42.839843-.992187 2.691407-.375 5.714844 1.601563 7.796876 1.445312 1.527343 3.433593 2.351562 5.46875 2.351562.746093 0 1.496093-.109375 2.234375-.339844.902344-.28125 22.285156-7.171875 30.976562-31.941406.832032-2.367188 1.640625-4.628906 2.425782-6.796875v21.492187c-4.886719 4.292969-7.992188 10.617188-7.992188 17.640626v59.53125c-.550781.804687-.953125 1.71875-1.160156 2.71875-.992188 4.789062-1.730469 9.804687-2.203125 14.972656l-81.453125 19.863281c-2.601563.609375-5.144532 1.367187-7.558594 2.261719-.132812.046875-.265625.101562-.398438.160156l-5.722656 2.488281c-.125.054688-.246094.113281-.367187.175781-.171875.082032-.335938.175782-.507813.261719-.636718-4.53125-.589844-9.15625.148438-13.675781l2.003906-12.238281c2.117188-10.328125-.65625-20.785157-7.625-28.710938-7.007812-7.972656-17.085938-12.074219-27.675781-11.230469l-19.757813 1.554688c-2.707031.214844-5.09375 1.871094-6.238281 4.335938-1.1484375 2.464843-.878906 5.355468.707031 7.566406l12.804688 17.878906c3.605468 5.027344 4.339844 11.691406 1.921875 17.386719-7.617188 17.941406-1.828125 38.746093 13.394531 50.316406-2.085938 5.226563-3.507812 10.769531-4.164062 16.515625-.476563 4.136719 2.496093 7.871094 6.628906 8.34375 4.121094.460938 7.871094-2.496094 8.34375-6.632812 1.875-16.394532 11.808594-30.628907 26.589844-38.113282l5.328124-2.320312c1.777344-.644532 3.652344-1.203125 5.644532-1.667969l86.859375-21.179687c3.230469-.789063 5.5625-3.601563 5.738281-6.921876.226562-4.226562.640625-8.351562 1.242188-12.328124h85.144531l1.875 57.039062c.289062 8.738281-1.824219 17.394531-6.113281 25.027344-1.039063 1.855468-1.25 4.066406-.574219 6.082031s2.171875 3.65625 4.121093 4.507813l40.589844 17.804687c1.921875.84375 3.074219 2.8125 2.867188 4.898437l-4.601563 46.992188c-.195312 1.976562-1.613281 3.660156-3.527343 4.1875l-20.878907 5.757812c-2.078125.574219-3.671875-.207031-4.4375-.722656-.769531-.515625-2.09375-1.699218-2.347656-3.835937l-.753906-6.363281h8.894531c8.8125 0 15.980469-7.167969 15.980469-15.980469v-8.226563c0-6.0625-2.800781-11.59375-7.6875-15.175781-4.890625-3.585937-11.007813-4.597656-16.789063-2.773437l-17.308594 5.453124c-5.542968 1.75-11.601562-.679687-14.402343-5.769531l-5.121094-9.296875c-1.613281-2.933594-4.976563-4.449218-8.242187-3.71875l-43.121094 9.640625c-.351563.050781-.691406.128907-1.027344.226563l-61.246094 13.695312c-3.160156.703125-5.511718 3.347656-5.851562 6.566406-2.085938 19.890626-11.214844 31.609376-27.90625 35.832032-6.4375 1.625-11.828125 5.695312-15.183594 11.460937-3.386719 5.824219-4.265625 12.613281-2.476562 19.109375l10.371093 37.597656c.554688 2.003907 1.910157 3.691407 3.75 4.660157l14.648438 7.71875-18.332031-.097657c-3.320313-.019531-6.53125-1.414062-8.808594-3.824218l-4.945313-5.238282c-1.738281-1.839843-2.960937-4.117187-3.53125-6.582031l-10.375-44.867187c-.636719-2.753906-.597656-5.652344.113281-8.386719l13.773438-53.085937c.71875-2.773438-.195312-5.714844-2.363281-7.589844-3.023438-2.613282-5.6875-5.589844-7.925781-8.839844-2.363282-3.429688-7.054688-4.292969-10.480469-1.933594-3.429688 2.359375-4.296875 7.050782-1.9375 10.480469 2.070312 3.003906 4.414062 5.828125 6.992187 8.429687l-12.648437 48.753907c-1.316407 5.074219-1.390625 10.457031-.207031 15.566406l10.375 44.867187c1.171874 5.070313 3.679687 9.753907 7.253906 13.539063l4.949218 5.234375c5.089844 5.394531 12.265626 8.507812 19.683594 8.546875l28.992188.15625h.070312c4.792969 0 8.921875-2.570313 11.023438-6.628906 5.125 4.464843 11.761718 7.003906 18.597656 7.039062l30.792969.167969h.070312c5.964844 0 10.9375-3.878906 12.386719-9.671875 1.453125-5.820313-1.132812-11.605469-6.4375-14.398437l-22.691406-11.957032-10.148438-36.789062c-.78125-2.839844-.398437-5.804688 1.082032-8.351563 1.445312-2.480469 3.753906-4.226562 6.503906-4.925781 24.675781-6.234375 38.914062-24.472656 41.4375-52.902344l32.542968-7.277344 2.390626 4.34375c6.253906 11.359376 19.769531 16.773438 32.136718 12.875l17.308594-5.453124c1.578125-.5 2.773438.128906 3.34375.550781.574219.417969 1.53125 1.371093 1.53125 3.023437v8.226563c0 .503906-.40625.910156-.910156.910156h-17.375c-2.152344 0-4.203125.921875-5.632813 2.53125-1.429687 1.609375-2.101562 3.753906-1.851562 5.894531l1.753906 14.785156c.703125 5.925782 3.949219 11.238282 8.902344 14.566407 4.957031 3.332031 11.097656 4.332031 16.855469 2.742187l20.878906-5.757812c7.886718-2.171875 13.71875-9.101563 14.515625-17.246094l4.605469-46.992188c.214843-2.167968.066406-4.308593-.394532-6.347656.285156-.125.5625-.265625.835938-.425781l13.023437-7.878906c8.222657-4.972657 12.609375-14.671875 10.914063-24.128907l-7.453125-41.640624c-1.789063-9.988282-9.742188-17.636719-19.789063-19.039063l-39.085937-5.449219c-.117188-.015625-.230469-.019531-.34375-.027344l-.648438-19.671874c-.023437-.796876-.179687-1.5625-.433593-2.277344.027343-.261719.042968-.53125.042968-.804688v-27.476562h35.953125l63.726563 76.910156c-7.011719 2.035156-14.152344 3.101562-21.308594 3.132812-4.152344.015626-7.507812 3.382813-7.507812 7.535157v23.460937c0 2 .796874 3.921875 2.214843 5.335938 1.414063 1.40625 3.328125 2.199218 5.320313 2.199218h.023437c37.425781-.117187 73.457031-16.277343 101.457031-45.503906 26.746094-27.917968 43.386719-65.566406 45.644532-103.289062.054687-.863282-.050782-1.703125-.273438-2.492188l1.011719-.855468c1.691406-1.429688 2.664063-3.535157 2.664063-5.75 0-2.214844-.972657-4.320313-2.664063-5.75zm-467.566406 103.285156c4.457031-10.5 3.097656-22.78125-3.542969-32.054688l-5.035156-7.027344 6.449218-.507812c5.800782-.453125 11.332032 1.785156 15.171876 6.15625 3.839843 4.371094 5.359374 10.140625 4.160156 15.835938-.023438.109374-.042969.222656-.0625.332031l-2.03125 12.394531c-1.378906 8.414062-.941406 17.097656 1.246094 25.332031-3.554688 3.160157-6.726563 6.6875-9.472657 10.519531-8.492187-7.660156-11.492187-20.132812-6.882812-30.980468zm55.636719 212.984375-9.503907-34.453125c-.703125-2.554688-.359375-5.226563.976563-7.519532 1.300781-2.234374 3.375-3.804687 5.847656-4.429687.832031-.210937 1.625-.460937 2.429688-.699219.105468 1.96875.375 3.933594.820312 5.859375l10.941406 47.308594zm52.875-65.464844c-6.710938 1.699219-12.335938 5.945313-15.832032 11.957031-3.539062 6.074219-4.457031 13.15625-2.585937 19.933594l11.015625 39.9375c.550781 2.003906 1.910156 3.691406 3.75 4.660156l17.253906 9.09375-21.386719-.117187c-3.65625-.019531-7.1875-1.550781-9.695312-4.207031l-5.253907-5.5625c-1.90625-2.015626-3.242187-4.511719-3.867187-7.210938l-11.019531-47.65625c-.691406-2.996094-.648438-6.152344.121094-9.128906.085937-.324219.136718-.644532.179687-.964844 10.679687-7.734375 17.550781-19.578125 20.222656-35.117188l46.617188-10.421874c-2.945313 18.894531-12.84375 30.589843-29.519531 34.804687zm319.914062-240.089844v-9.929687h.015625.007813.007812 16.714844l5.863281 4.964844-5.863281 4.964843zm-71.015625-114.011719c.089844-.105468.167969-.214843.25-.320312 16.359375 8.679688 31.300781 22.726562 42.957031 40.980469 2.242188 3.507812 6.902344 4.535156 10.40625 2.296875 3.507813-2.242188 4.539063-6.898438 2.296875-10.40625-21.445312-33.585938-53.183593-54.660156-86.078125-57.582032v-8.46875c30.921875 2.121094 60.425782 16.621094 83.777344 41.339844 21.265625 22.511719 35.304688 51.691406 39.605469 81.671875-.851563-.328125-1.765625-.5-2.691407-.5h-12.898437c-1.433594-9.003906-3.789063-18.042969-7.066406-26.949219-1.4375-3.902343-5.769531-5.902343-9.675781-4.46875-3.90625 1.4375-5.90625 5.769532-4.46875 9.675782 2.660156 7.234375 4.648437 14.546875 5.953124 21.832031-3.632812.542969-6.421874 3.664063-6.421874 7.445313v4.964843h-93.5625c-.191407 0-.382813.015625-.570313.027344-5.363281-6.054687-12.992187-9.519531-21.0625-9.519531h-19.257813zm-140.265625 44.496094-2.773438-6.539062c-.960937-2.261719-2.964843-3.914063-5.367187-4.425782-1.355469-.289062-13.527344-2.59375-23.148437 5.191407-6.703126 5.425781-10.097657 13.980469-10.097657 25.429687 0 3.121094 1.921875 5.917969 4.832031 7.035156l20.59375 7.90625 9.972657 12.921876h-58.886719v-56.371094c0-17.886719 14.550781-32.441406 32.4375-32.441406s32.4375 14.554687 32.4375 32.441406zm-6.976562 22.140625c-.496094-.347656-1.039063-.632812-1.609376-.855469l-17.386718-6.675781c.597656-3.96875 1.96875-6.855469 4.101562-8.617187 2.128906-1.753906 4.867188-2.289063 7.023438-2.398438zm-89.617188 11.429688c-1.730469 4.933593-4.140625 8.863281-6.714844 11.96875 1.621094-9.78125 2.292969-21.589844-.742187-31.933594-.449219-1.523437-.910157-3.066406-1.378907-4.632813-5.21875-17.445312-11.140624-37.214843-3.730468-54.933593.28125-.671875.570312-1.332031.863281-1.984375 10.679687-23.492188 34.691406-38.675782 61.171875-38.675782h37.359375l-1.925781 35.035157c-6.273438-3.054688-13.3125-4.777344-20.742188-4.777344-26.199218 0-47.511718 21.3125-47.511718 47.511719v.429687c-.820313 1.714844-7.480469 15.859375-16.648438 41.992188zm121.3125 182.835937c2.152344-.800781 4.21875-1.84375 6.144531-3.105468l8.824219-5.785157c1.949219-1.277343 4.316406-1.539062 6.496094-.722656 2.179687.816406 3.792968 2.566406 4.425781 4.808594.65625 2.332031-.703125 4.761719-3.035156 5.417969l-9.605469 2.707031c-3.027344.855469-5.546875 2.964843-6.921875 5.796875-.34375.707031-.605469 1.441406-.789063 2.195312l-8.054687-3.535156c1.015625-2.535156 1.84375-5.136719 2.515625-7.777344zm37.832031-41.90625c3.574219.5 6.402344 3.21875 7.035157 6.769532l7.457031 41.640624c.601562 3.359376-.957031 6.808594-3.878907 8.574219l-13.023437 7.878907c-.542969.328124-1.023437.71875-1.449219 1.148437-.945312-.625-1.945312-1.179687-3.007812-1.644531l-10.820313-4.746094c.085938-.242188.164063-.492188.21875-.742188l6.585938-1.855468c10.328125-2.914063 16.359375-13.6875 13.449219-24.015625-1.949219-6.910157-6.925782-12.316407-13.652344-14.832031-6.726563-2.515626-14.03125-1.699219-20.035156 2.234374l-4.78125 3.136719-.945313-28.683593zm-45.921875-85.703125c-4.160156 0-7.535156 3.375-7.535156 7.535157v30.804687h-81.960938v-56.242187c0-4.539063 3.5625-8.261719 7.941407-8.296876h.117187 145.824219c3.859375 0 7.515625 1.714844 10.027344 4.710938 2.535156 3.015625 3.550781 6.835938 2.863281 10.761719-.984375 5.613281-7.28125 10.726562-13.207031 10.726562h-17.046875c-.007813 0-.015625 0-.019532 0zm63.0625 15.070313h1.007813c13.226562 0 25.808593-10.40625 28.050781-23.195313.503906-2.875.550781-5.765625.183594-8.585937h87.277344v4.964844c0 3.777343 2.78125 6.894531 6.40625 7.441406-4.269532 23.878906-15.820313 47.515625-32.429688 65.914062-9.582031 10.617188-20.292969 18.886719-31.589844 24.554688zm113.464844 62.644531c-23.234375 24.25-52.476562 38.480469-83.058594 40.585937v-8.460937c25.878906-2.261719 50.941406-15.605469 71.277344-38.128906 19.046875-21.101563 32.140625-48.441407 36.523438-75.921875h12.890624c.925782 0 1.835938-.175782 2.691407-.5-4.351563 30.324218-18.699219 59.855468-40.324219 82.425781zm0 0"/></svg>