<svg id="Capa_1" enable-background="new 0 0 512 512" height="512" viewBox="0 0 512 512" width="512" xmlns="http://www.w3.org/2000/svg"><g><path d="m421.998 247.739c-4.143 0-7.5 3.357-7.5 7.5v22.758h-105.92l-8.857-22.142c-1.909-4.773-6.464-7.857-11.605-7.857h-64.23c-5.142 0-9.696 3.084-11.605 7.857l-8.858 22.142h-105.921v-212.998h71.499c4.143 0 7.5-3.357 7.5-7.5s-3.357-7.5-7.5-7.5h-73.999c-6.893 0-12.5 5.607-12.5 12.5v217.998c0 6.893 5.607 12.5 12.5 12.5h62.935l4.084 13.474c3.539 11.679 14.115 19.525 26.318 19.525h13.201l-81.316 168.052c-4.147 7.926 2.311 18.227 11.251 17.946h23.891c4.761 0 9.178-2.77 11.251-7.056l35.296-72.944h31.587v67.499c0 6.892 5.607 12.5 12.5 12.5h20c6.893 0 12.5-5.607 12.5-12.5v-67.499h31.588l35.296 72.944c2.073 4.286 6.49 7.056 11.251 7.056h23.891c8.939.28 15.398-10.02 11.252-17.944l-81.318-168.054h13.201c12.203 0 22.779-7.847 26.318-19.525l4.083-13.474h62.936c6.893 0 12.5-5.607 12.5-12.5v-25.258c0-4.142-3.357-7.5-7.5-7.5zm-196.42 15.258h60.843l6 15h-72.844zm37.922 233.998h-15v-64.999h15zm113.038 0h-18.336l-35.296-72.946c-2.076-4.284-6.492-7.053-11.251-7.053h-111.31c-4.759 0-9.175 2.769-11.252 7.056l-35.296 72.944h-18.335l82.372-170.238c.121-.25.224-.504.315-.76h18.389l-30.175 62.362c-1.434 2.963-1.246 6.396.503 9.184 1.748 2.788 4.757 4.453 8.048 4.453h82.169c3.291 0 6.3-1.665 8.048-4.453 1.749-2.788 1.937-6.222.503-9.184l-30.175-62.362h18.337zm-88.225-109.999h-9.813v-20.281zm-29.454-61c.095.274 4.641 9.719 4.641 9.719v51.281h-15v-51.28s4.545-9.444 4.641-9.72zm-35.172 61 9.813-20.281v20.281zm111.937-84.874c-1.608 5.309-6.416 8.875-11.963 8.875h-135.322c-5.547 0-10.354-3.566-11.963-8.875l-2.765-9.125h164.773z"/><path d="m416.998 49.999h-101.499v-2.5c0-6.893-5.607-12.5-12.5-12.5h-24.5v-22.499c.001-6.893-5.607-12.5-12.499-12.5h-20c-6.893 0-12.5 5.607-12.5 12.5v22.5h-24.5c-6.893 0-12.5 5.607-12.5 12.5v51.999c0 6.893 5.607 12.5 12.5 12.5h93.999c6.893 0 12.5-5.607 12.5-12.5v-34.5h98.999v155.24c0 4.143 3.357 7.5 7.5 7.5s7.5-3.357 7.5-7.5v-157.74c0-6.892-5.607-12.5-12.5-12.5zm-168.498-34.999h15v20h-15zm52 81.999h-89v-47h89z"/></g></svg>