<?xml version="1.0" encoding="iso-8859-1"?>
<!-- Generator: Adobe Illustrator 19.0.0, SVG Export Plug-In . SVG Version: 6.00 Build 0)  -->
<svg version="1.1" id="Capa_1" xmlns="http://www.w3.org/2000/svg" xmlns:xlink="http://www.w3.org/1999/xlink" x="0px" y="0px"
	 viewBox="0 0 512 512" style="enable-background:new 0 0 512 512;" xml:space="preserve">
<g>
	<g>
		<path d="M505.726,174.19c-4.208-29.568-14.574-57.188-30.811-82.094c-3.016-4.626-9.211-5.933-13.838-2.916
			c-4.627,3.016-5.933,9.212-2.916,13.838c14.63,22.44,23.971,47.335,27.764,73.99c1.32,9.273-1.444,18.649-7.584,25.725
			c-6.14,7.076-15.033,11.133-24.4,11.133c-17.813,0-32.306-14.493-32.306-32.307v-9.309c0-5.522-4.478-10-10-10
			c-5.522,0-10,4.478-10,10v0.478c-0.405,1.346-0.541,2.796-0.33,4.279c1.319,9.274-1.445,18.651-7.585,25.727
			c-6.139,7.074-15.032,11.132-24.399,11.132c-17.813,0-32.307-14.493-32.307-32.307c0-0.187-0.018-0.368-0.028-0.552
			c-0.024-2.268-0.178-4.543-0.501-6.817c-0.778-5.468-5.843-9.26-11.31-8.491c-5.468,0.778-9.27,5.842-8.491,11.31
			c1.32,9.273-1.444,18.65-7.584,25.725c-6.139,7.075-15.032,11.133-24.399,11.133c-17.813,0-32.307-14.493-32.307-32.307
			c0-5.522-4.478-10-10-10c-5.522,0-10,4.478-10,10c0,6.091,1.057,11.937,2.98,17.378c-0.846,0.077-1.696,0.252-2.532,0.557
			l-3.343,1.223c-33.34,12.193-61.712,34.018-82.051,63.112c-20.339,29.096-31.089,63.238-31.089,98.737
			c0,51.901,15.375,102.055,44.463,145.037c1.934,2.856,5.084,4.396,8.291,4.396c1.929,0,3.878-0.557,5.596-1.719
			c4.574-3.096,5.772-9.313,2.678-13.887c-26.841-39.661-41.027-85.938-41.027-133.829c0-63.694,40.19-121.188,100.009-143.065
			l3.344-1.223c1.926-0.705,3.503-1.941,4.629-3.481c9.602,11.638,24.129,19.069,40.359,19.069c15.166,0,29.565-6.569,39.506-18.024
			c0.998-1.15,1.926-2.347,2.812-3.569c9.518,13.073,24.93,21.593,42.302,21.593c15.166,0,29.565-6.569,39.505-18.023
			c0.999-1.151,1.927-2.349,2.813-3.571c9.519,13.074,24.93,21.594,42.303,21.594c15.166,0,29.565-6.569,39.505-18.024
			C503.387,204.387,507.862,189.206,505.726,174.19z"/>
	</g>
</g>
<g>
	<g>
		<path d="M447.793,58.816l-0.202-0.2c-3.933-3.876-10.265-3.831-14.142,0.103c-3.877,3.934-3.831,10.266,0.103,14.142l0.202,0.199
			c1.948,1.92,4.484,2.878,7.02,2.878c2.583,0,5.166-0.995,7.122-2.98C451.773,69.024,451.727,62.692,447.793,58.816z"/>
	</g>
</g>
<g>
	<g>
		<path d="M420.246,35.937C386.246,12.427,346.393,0,304.993,0h-27.997c-45.757,0-90.922,12.032-130.613,34.796
			c-39.692,22.764-72.885,55.672-95.99,95.165c-70.752,120.932-56.37,273.086,35.791,378.617c1.978,2.264,4.749,3.422,7.536,3.422
			c2.334,0,4.678-0.813,6.574-2.468c4.159-3.633,4.587-9.95,0.954-14.11c-86.499-99.048-100-241.857-33.593-355.361
			C110.981,66.005,191.196,20,276.996,20h27.997c37.315,0,73.236,11.199,103.878,32.388c4.542,3.142,10.771,2.005,13.913-2.538
			C425.925,45.307,424.789,39.079,420.246,35.937z"/>
	</g>
</g>
<g>
	<g>
		<path d="M328.154,492h-8.219c-35.258,0-70.253-11.591-98.542-32.638c-16.301-12.128-30.076-26.982-40.945-44.151l-7.58-11.978
			c-2.954-4.665-9.129-6.057-13.799-3.101c-4.666,2.953-6.055,9.131-3.101,13.798l7.581,11.978
			c12.186,19.249,27.63,35.903,45.906,49.501C241.171,499.005,280.406,512,319.935,512h8.219c5.522,0,10-4.478,10-10
			C338.154,496.478,333.677,492,328.154,492z"/>
	</g>
</g>
<g>
	<g>
		<path d="M427.659,472.881c-0.718-13.045-8.04-24.48-19.586-30.592c-5.3-2.806-11.271-4.289-17.27-4.289h-48.24
			c-2.383-4.505-5.915-8.436-10.425-11.266l-5.961-3.741l19.545-29.318c1.154-1.731,2.088-3.583,2.812-5.509h28.737
			c17.43,0,33.294-9.585,41.402-25.016c2.568-4.889,0.688-10.935-4.201-13.504c-4.891-2.571-10.936-0.687-13.504,4.201
			c-4.641,8.832-13.721,14.318-23.697,14.318h-29.026c-2.234-5.411-6.178-10.041-11.254-13.067l-8.318-4.958
			c4.013,1.414,8.323,2.192,12.814,2.192c21.321,0,38.667-17.346,38.667-38.666c0-21.321-17.346-38.667-38.667-38.667
			c-21.32,0-38.666,17.346-38.666,38.667c0,11.351,4.917,21.574,12.733,28.654l-0.931-0.555c-4.665-2.781-9.847-4.01-14.928-3.827
			l-23.307-26.104c-4.792-5.368-5.814-12.998-2.604-19.438c2.464-4.942,0.454-10.947-4.489-13.411
			c-4.944-2.463-10.947-0.453-13.411,4.489c-6.882,13.808-4.69,30.168,5.585,41.679l19.183,21.486
			c-0.932,1.005-1.802,2.091-2.593,3.258c-0.001,0-0.001,0.001-0.001,0.001l-21.349,31.515l-9.328-3.695
			c-13.88-5.495-29.809-2.368-40.581,7.971l-20.238,19.429c-3.983,3.825-4.113,10.155-0.288,14.14
			c1.964,2.045,4.587,3.074,7.215,3.074c2.491,0,4.985-0.925,6.925-2.786l20.237-19.428c5.141-4.935,12.746-6.426,19.365-3.805
			l15.941,6.314l50.87,31.834c0.004,0.002,0.008,0.005,0.012,0.008l5.625,3.529h-76.642c-5.522,0-10,4.478-10,10
			c0,5.522,4.478,10,10,10h88.743l-5.827,16.301c-1.858,5.201,0.851,10.924,6.051,12.783c1.113,0.397,2.248,0.586,3.366,0.586
			c4.105,0,7.955-2.549,9.417-6.637l6.794-19.01c0.474-1.326,0.842-2.671,1.117-4.023h45.321c2.748,0,5.484,0.68,7.912,1.965
			c5.29,2.801,8.645,8.04,8.974,14.017c0.329,5.977-2.43,11.554-7.394,14.926l-0.247,0.169c-2.816,1.913-6.104,2.924-9.506,2.924
			h-40.389c-5.522,0-10,4.478-10,10c0,5.522,4.478,10,10,10h40.389c7.427,0,14.601-2.206,20.758-6.39l0.248-0.169
			C422.355,498.097,428.377,485.926,427.659,472.881z M341.487,295c10.293,0,18.667,8.374,18.667,18.667
			c0,10.292-8.374,18.666-18.667,18.666c-10.292,0-18.666-8.374-18.666-18.666C322.821,303.374,331.195,295,341.487,295z
			 M309.223,412.368l-34.641-21.679l20.033-29.572c2.165-3.193,6.452-4.148,9.767-2.173l22.368,13.334
			c1.732,1.033,2.931,2.685,3.376,4.652c0.445,1.966,0.074,3.973-1.044,5.65L309.223,412.368z"/>
	</g>
</g>
<g>
	<g>
		<path d="M276.996,48.026l-0.868,0.002c-5.522,0.02-9.984,4.513-9.965,10.035c0.02,5.511,4.492,9.965,9.999,9.965
			c0.012,0,0.024,0,0.036,0l0.798-0.002c5.522,0,10-4.478,10-10S282.518,48.026,276.996,48.026z"/>
	</g>
</g>
<g>
	<g>
		<path d="M245.952,60.398c-1.231-5.383-6.599-8.751-11.979-7.518c-51.692,11.826-96.7,44.862-123.481,90.639
			c-2.789,4.767-1.186,10.893,3.581,13.681c1.587,0.929,3.325,1.371,5.04,1.371c3.436,0,6.781-1.772,8.64-4.952
			c24.006-41.03,64.347-70.642,110.681-81.242C243.818,71.146,247.183,65.782,245.952,60.398z"/>
	</g>
</g>
<g>
</g>
<g>
</g>
<g>
</g>
<g>
</g>
<g>
</g>
<g>
</g>
<g>
</g>
<g>
</g>
<g>
</g>
<g>
</g>
<g>
</g>
<g>
</g>
<g>
</g>
<g>
</g>
<g>
</g>
</svg>
