<?xml version="1.0"?>
<svg xmlns="http://www.w3.org/2000/svg" viewBox="0 0 64 64" width="512" height="512"><g id="Outline"><g><path d="M44.032,32.6a1,1,0,0,0,.509,1.32,8.545,8.545,0,0,0,7.989-.569,6.585,6.585,0,0,1,6.94,0l1,.625a1,1,0,1,0,1.06-1.7l-1-.625a8.6,8.6,0,0,0-9.06,0,6.533,6.533,0,0,1-6.118.435A1,1,0,0,0,44.032,32.6Z"/><path d="M13.53,36.652a8.6,8.6,0,0,0-9.06,0l-2,1.25a1,1,0,0,0,1.06,1.7l2-1.25a6.585,6.585,0,0,1,6.94,0,8.6,8.6,0,0,0,9.06,0,6.585,6.585,0,0,1,6.94,0,8.6,8.6,0,0,0,9.06,0,6.585,6.585,0,0,1,6.94,0,8.547,8.547,0,0,0,4.748,1.3,1,1,0,0,0-.026-2h-.025a6.509,6.509,0,0,1-3.637-.993,8.6,8.6,0,0,0-7.662-.683l-6.1-6.1L34.9,28.535l4.822,2.893a3.11,3.11,0,0,0,3.326-5.255l-5.088-3.392a5.006,5.006,0,0,0-4.569-.507l-6.469,2.488a4.983,4.983,0,0,0-.628.294,1,1,0,1,0,.97,1.749,3.081,3.081,0,0,1,.377-.177L34.1,24.141a3,3,0,0,1,2.742.3l5.088,3.392a1.111,1.111,0,0,1-1.188,1.876l-5.261-3.156a1,1,0,0,0-.908-.062l-4.95,2.122a1,1,0,0,0-.313,1.626l6.668,6.667a6.58,6.58,0,0,1-6.452-.258,8.6,8.6,0,0,0-9.06,0,6.563,6.563,0,0,1-4.163.941l4.521-4.522a1,1,0,0,0,0-1.414l-.245-.246A5.986,5.986,0,1,0,18,32c.11,0,.218-.01.327-.016l.167.166a6.494,6.494,0,0,1-5.964-.5,8.6,8.6,0,0,0-9.06,0l-1,.625a1,1,0,1,0,1.06,1.7l1-.625a6.585,6.585,0,0,1,6.94,0A8.519,8.519,0,0,0,16,34.655c.148,0,.295-.015.443-.023L14.112,36.96C13.915,36.863,13.718,36.769,13.53,36.652ZM18,22a3.992,3.992,0,0,1,2.829,1.169,4.152,4.152,0,0,1,.311.382,12.994,12.994,0,0,0-7.086,1.9A3.957,3.957,0,0,1,18,22Zm-3.631,5.646a10.973,10.973,0,0,1,7.592-2.035,3.977,3.977,0,0,1-7.592,2.035Z"/><path d="M61.53,36.652a8.6,8.6,0,0,0-9.06,0,1,1,0,1,0,1.06,1.7,6.585,6.585,0,0,1,6.94,0,1,1,0,1,0,1.06-1.7Z"/><path d="M14.53,41.652a8.6,8.6,0,0,0-9.06,0l-3,1.875a1,1,0,0,0,1.06,1.7l3-1.875a6.585,6.585,0,0,1,6.94,0,1,1,0,0,0,1.06-1.7Z"/><path d="M38.53,43.348a6.585,6.585,0,0,1,6.94,0,8.6,8.6,0,0,0,9.06,0A6.544,6.544,0,0,1,60.6,42.9a1,1,0,0,0,.794-1.835,8.541,8.541,0,0,0-7.927.591,6.589,6.589,0,0,1-6.94,0,8.6,8.6,0,0,0-9.06,0,6.589,6.589,0,0,1-6.94,0,8.6,8.6,0,0,0-9.06,0,6.6,6.6,0,0,1-3.692.991,1,1,0,0,0-.069,2c.1,0,.2,0,.3,0a8.506,8.506,0,0,0,4.525-1.3,6.585,6.585,0,0,1,6.94,0A8.6,8.6,0,0,0,38.53,43.348Z"/><path d="M59.3,47.674l-8.041-1.462A1,1,0,0,0,50.9,48.18l8.04,1.462A1.289,1.289,0,0,1,60,50.91v.452a1.289,1.289,0,0,1-1.47,1.276l-9.322-1.329a3.02,3.02,0,0,1-1.19-.441l-9.48-6.052A1,1,0,0,0,37,45.659V49.7a3,3,0,0,0,1.781,2.741l5.624,2.5a1.288,1.288,0,0,1-.985,2.38l-8.133-3.128a4.023,4.023,0,0,1-2.551-3.4l-.348-4.182a1,1,0,1,0-1.993.166l.348,4.182a6.035,6.035,0,0,0,3.825,5.1L42.7,59.188a3.314,3.314,0,0,0,1.189.222,3.29,3.29,0,0,0,1.327-6.3l-5.624-2.5A1,1,0,0,1,39,49.7V47.483l7.94,5.07a5.041,5.041,0,0,0,1.986.736l9.322,1.329A3.288,3.288,0,0,0,62,51.362V50.91A3.289,3.289,0,0,0,59.3,47.674Z"/><path d="M9,52a3,3,0,1,0,3,3A3,3,0,0,0,9,52Zm0,4a1,1,0,1,1,1-1A1,1,0,0,1,9,56Z"/><path d="M25,45a3,3,0,1,0,3,3A3,3,0,0,0,25,45Zm0,4a1,1,0,1,1,1-1A1,1,0,0,1,25,49Z"/><circle cx="17" cy="57" r="1"/><circle cx="26" cy="56" r="1"/><circle cx="16" cy="50" r="1"/><circle cx="54" cy="57" r="1"/><circle cx="8" cy="47" r="1"/></g></g></svg>
