<svg id="Capa_1" enable-background="new 0 0 512.003 512.003" height="512" viewBox="0 0 512.003 512.003" width="512" xmlns="http://www.w3.org/2000/svg"><g><path d="m325.829 325.691c38.619-1.568 75.468-18.012 103.758-46.301 30.543-30.544 48.53-66.987 50.648-102.617 1.058-17.782-1.785-35.233-8.45-51.867-7.127-17.787-18.671-34.737-34.311-50.377-15.642-15.641-32.591-27.185-50.378-34.311-16.633-6.665-34.082-9.508-51.866-8.45-35.63 2.118-72.073 20.106-102.617 50.649-10.566 10.566-19.333 22.215-26.306 34.524-.071.121-.143.24-.206.364-31.506 55.962-25.801 125.546 18.625 169.973 24.979 24.978 58.541 38.537 95.063 38.537 2.003-.001 4.02-.042 6.04-.124zm-63.132-28.773 22.888-22.888 26.622 26.622-9.077 9.078c-14.385-1.886-28.021-6.219-40.433-12.812zm-60.466-88.45 8.896-8.896 26.622 26.622-22.808 22.808c-6.656-12.643-10.881-26.371-12.71-40.534zm12.471-75.209 20.762 20.762-24.337 24.337-8.119-8.119c2.097-12.577 6.003-25.046 11.694-36.98zm7.032 55.706 24.337-24.337 26.622 26.622-24.337 24.337zm61.941-126.508 21.677 21.677-24.337 24.337-26.164-26.164c9.249-7.844 18.921-14.492 28.824-19.85zm32.283 32.284 26.622 26.622-24.336 24.337-26.622-26.622zm61.566-8.321-24.337 24.337-26.622-26.622 24.336-24.337zm52.171 170.732-26.387-26.387 24.337-24.337 21.9 21.9c-5.358 9.903-12.005 19.575-19.85 28.824zm-36.994-36.994-26.622-26.622 24.337-24.337 26.622 26.622zm-47.836-26.622-24.337 24.337-26.622-26.622 24.337-24.337zm-16.015-37.229 24.337-24.337 26.622 26.622-24.337 24.337zm26.622 47.835 26.622 26.622-24.337 24.337-26.622-26.622zm45.551-45.55 24.336-24.337 26.622 26.622-24.337 24.337zm-10.607-10.607-26.621-26.622 24.336-24.336 26.622 26.622zm-82.779 8.322-24.337 24.337-26.622-26.622 24.337-24.337zm-24.337 45.55 26.622 26.622-24.337 24.337-26.622-26.622zm37.228 37.229 26.622 26.622-24.337 24.337-26.622-26.622zm21.243 69.916-8.35-8.35 24.337-24.337 21.016 21.016c-11.767 5.62-24.209 9.557-37.003 11.671zm50.712-19.175-24.119-24.119 24.337-24.337 26.84 26.84c-.189.19-.372.382-.561.572-8.125 8.124-17.024 15.165-26.497 21.044zm63.875-75.9-18.107-18.107 24.337-24.337.827.827c.585.585 1.245 1.048 1.947 1.399-.028.723-.056 1.447-.099 2.172-.753 12.647-3.789 25.454-8.905 38.046zm7.135-64.442c-.283.212-.558.438-.816.696l-.089.089-26.622-26.622 12.154-12.154c3.898 6.207 7.159 12.545 9.741 18.99 2.49 6.216 4.366 12.561 5.632 19.001zm-24.169-50.408-13.965 13.965-26.621-26.622 13.937-13.936c4.833 3.813 9.57 8.029 14.193 12.652 4.542 4.542 8.694 9.195 12.456 13.941zm-39.09-35.367-12.102 12.103-26.627-26.627c.232-.24.441-.493.635-.754 6.57 1.267 13.042 3.171 19.379 5.71 6.349 2.544 12.595 5.747 18.715 9.568zm-64.113-16.969c.725-.043 1.449-.069 2.172-.097.351.7.813 1.358 1.397 1.942l.605.605-24.336 24.336-17.883-17.883c12.592-5.115 25.399-8.151 38.045-8.903zm-92.901 46.282c.189-.19.382-.373.572-.561l26.616 26.617-24.337 24.337-23.881-23.881c5.815-9.392 12.827-18.31 21.03-26.512zm-20.195 169.109 25.331-25.331 26.622 26.622-25.372 25.372c-5.043-3.621-9.816-7.665-14.275-12.124-4.562-4.563-8.663-9.427-12.306-14.539z"/><path d="m458.753 53.251c-34.322-34.321-74.888-52.731-117.315-53.239-39.617-.487-79.143 14.387-114.275 42.979-3.213 2.614-3.698 7.338-1.083 10.551s7.34 3.699 10.551 1.083c68.791-55.982 149.838-52.444 211.515 9.232 67.537 67.537 65.232 157.119-5.87 228.221-37.85 37.85-91.057 56.021-142.363 48.619-1.999-.336-24.79-3.99-49.051-.406-30.939 4.571-58.544 17.88-82.166 39.582l-36.435-36.435c21.702-23.622 35.012-51.227 39.583-82.166 3.594-24.326-.109-46.682-.469-48.748-7.327-49.792 8.73-100.137 44.063-138.143 2.82-3.034 2.647-7.779-.387-10.6s-7.78-2.646-10.6.387c-19.339 20.803-33.35 44.911-41.642 71.654-7.945 25.626-10.109 52.942-6.259 78.997.011.071.023.148.036.22.038.213 3.74 21.553.418 44.04-4.181 28.3-16.507 53.55-36.651 75.14-5.262-1.535-11.182-.234-15.324 3.908l-11.982 11.983c-5.284 5.284-5.946 13.466-1.99 19.478l-64.138 64.138-19.279 11.567c-4.183 2.509-6.924 6.726-7.52 11.567-.596 4.842 1.04 9.597 4.49 13.046l37.486 37.486c2.983 2.983 6.942 4.61 11.09 4.61.648 0 1.302-.04 1.957-.121 4.841-.596 9.058-3.337 11.567-7.52l11.568-19.279 64.138-64.138c2.574 1.694 5.546 2.542 8.518 2.542 3.969 0 7.939-1.511 10.96-4.532l11.982-11.982c4.088-4.088 5.4-9.907 3.958-15.116 21.608-20.189 46.885-32.541 75.219-36.727 22.413-3.31 44.209.333 44.421.368.065.011.132.022.198.031 55.993 8.113 114.01-11.645 155.21-52.844 35.407-35.407 56.307-78.457 58.849-121.219 2.763-46.457-15.557-90.793-52.978-128.214zm-363.156 393.299-30.145-30.145 12.676-12.676 30.145 30.145zm-40.751-19.538 30.145 30.145-12.676 12.676-30.145-30.145zm-.999 69.633c-.045.076-.184.306-.538.349-.355.044-.545-.146-.607-.208l-37.485-37.486c-.062-.062-.252-.252-.208-.607.043-.354.273-.492.35-.538l15.041-9.025 32.473 32.473zm65.033-73.378-30.145-30.145 12.677-12.677 30.145 30.145zm44.389-26.9-11.982 11.982c-.195.195-.512.195-.708 0l-46.925-46.925c-.195-.195-.195-.513 0-.708l11.982-11.982c.098-.097.226-.146.354-.146s.256.049.354.146l46.926 46.926c.194.194.194.512-.001.707z"/><path d="m214.054 297.949c-3.591-3.591-7.042-7.414-10.257-11.36-2.698-3.312-6.979-4.873-11.175-4.073-4.211.804-7.632 3.848-8.926 7.943-4.129 13.062-9.892 25.668-17.13 37.468-3.11 5.071-2.34 11.555 1.873 15.768 2.485 2.485 5.759 3.772 9.068 3.772 2.302 0 4.62-.623 6.701-1.899 11.805-7.242 24.417-13.007 37.485-17.136 4.099-1.295 7.144-4.718 7.947-8.934.799-4.197-.765-8.479-4.083-11.175-3.996-3.247-7.866-6.738-11.503-10.374zm-30.522 30.652c4.963-8.964 9.165-18.305 12.554-27.905 2.373 2.703 4.835 5.332 7.361 7.858 2.572 2.572 5.249 5.077 8.001 7.487-9.602 3.391-18.948 7.596-27.916 12.56z"/><path d="m18.373 110.915c3.676-1.909 5.109-6.436 3.201-10.112-4.361-8.401-6.573-17.497-6.573-27.036 0-16.649 6.971-31.691 18.133-42.394v9.261c0 22.405 18.228 40.633 40.633 40.633s40.633-18.228 40.633-40.633v-9.261c11.162 10.703 18.133 25.745 18.133 42.394 0 32.404-26.363 58.767-58.767 58.767-12.651 0-24.701-3.956-34.846-11.44-3.333-2.46-8.029-1.751-10.488 1.582-2.459 3.334-1.75 8.029 1.583 10.488 12.743 9.401 27.872 14.37 43.751 14.37 40.675 0 73.767-33.092 73.767-73.767s-33.09-73.766-73.765-73.766-73.766 33.092-73.766 73.766c0 11.799 2.856 23.538 8.259 33.947 1.909 3.677 6.438 5.11 10.112 3.201zm81.029-90.019v19.738c0 14.134-11.499 25.633-25.633 25.633s-25.634-11.499-25.634-25.633v-19.738c7.751-3.773 16.449-5.895 25.633-5.895s17.882 2.122 25.634 5.895z"/><path d="m77.91 114.401c4.142 0 7.5-3.358 7.5-7.5s-3.358-7.5-7.5-7.5h-8.283c-4.142 0-7.5 3.358-7.5 7.5s3.358 7.5 7.5 7.5z"/></g></svg>