<svg id="Capa_1" enable-background="new 0 0 512 512" height="512" viewBox="0 0 512 512" width="512" xmlns="http://www.w3.org/2000/svg"><g><path d="m356 203.9c0-3.575-1.908-6.877-5.005-8.663l-90-51.9c-3.064-1.769-6.922-1.771-9.99 0l-90 51.9c-3.097 1.786-5.004 5.088-5.004 8.663v104.2c0 3.832 1.847 6.628 5.056 8.693.011.006 90.175 52.058 90.175 52.058 1.548.893 3.273 1.339 5 1.339 1.733 0 3.468-.45 5.019-1.351l89.77-52.09c3.058-1.776 4.981-5.097 4.981-8.649v-104.2zm-20 86.834-70-40.626v-80.798l70 40.367zm-90-121.424v81.05l-70 40.418v-81.102zm10.218 179.326-70.218-40.537 70.218-40.544 69.858 40.544z"/><path d="m395.034 116.903c-25.528-62.787-71.246-116.903-139.034-116.903-67.626 0-113.457 54.09-139.097 116.966-62.787 25.529-116.903 71.246-116.903 139.034 0 67.626 54.09 113.457 116.966 139.097 25.529 62.787 71.246 116.903 139.034 116.903 17.587 0 34.536-3.746 50.378-11.136 5.006-2.334 7.171-8.284 4.836-13.29-2.333-5.005-8.286-7.17-13.289-4.835-13.176 6.145-27.281 9.261-41.925 9.261-58.446 0-93.834-48.18-112.982-87.525 36.01 11.36 75.333 17.525 112.982 17.525 37.582 0 76.93-6.189 113.044-17.592-3.53 7.254-7.287 14.153-11.254 20.623-2.888 4.708-1.411 10.865 3.297 13.752 4.707 2.888 10.865 1.41 13.752-3.296 7.512-12.249 14.313-25.85 20.265-40.455 62.786-25.531 116.896-71.249 116.896-139.032 0-67.651-54.13-113.473-116.966-139.097zm-139.034-96.903c58.446 0 93.834 48.18 112.982 87.525-36.01-11.36-75.333-17.525-112.982-17.525-37.583 0-76.931 6.189-113.044 17.592 19.172-39.371 54.593-87.592 113.044-87.592zm-236 236c0-58.446 48.18-93.834 87.525-112.982-11.36 36.01-17.525 75.333-17.525 112.982 0 37.583 6.189 76.931 17.592 113.044-39.371-19.172-87.592-54.593-87.592-113.044zm112.413 123.662c-14.258-38.029-22.413-82.815-22.413-123.662 0-41.558 7.928-85.247 22.338-123.587 38.029-14.258 82.815-22.413 123.662-22.413 41.558 0 85.248 7.928 123.586 22.338 14.259 38.028 22.414 82.814 22.414 123.662 0 41.558-7.928 85.247-22.338 123.587-38.031 14.258-82.816 22.413-123.662 22.413-41.558 0-85.247-7.928-123.587-22.338zm272.062-10.679c11.36-36.011 17.525-75.334 17.525-112.983 0-37.584-6.189-76.932-17.592-113.044 39.372 19.172 87.592 54.593 87.592 113.044 0 58.446-48.181 93.835-87.525 112.983z"/><circle cx="339.001" cy="466" r="10"/></g></svg>